<svg width="25" height="25" viewBox="0 0 25 25" fill="none" xmlns="http://www.w3.org/2000/svg">
<path d="M8.3165 24.0058C9.47127 24.0058 10.4074 23.0697 10.4074 21.9149C10.4074 20.7601 9.47127 19.824 8.3165 19.824C7.16172 19.824 6.22559 20.7601 6.22559 21.9149C6.22559 23.0697 7.16172 24.0058 8.3165 24.0058Z" stroke="#FF0018" stroke-width="1.75" stroke-linecap="round" stroke-linejoin="round"/>
<path d="M20.8663 24.0058C22.0211 24.0058 22.9572 23.0697 22.9572 21.9149C22.9572 20.7601 22.0211 19.824 20.8663 19.824C19.7115 19.824 18.7754 20.7601 18.7754 21.9149C18.7754 23.0697 19.7115 24.0058 20.8663 24.0058Z" stroke="#FF0018" stroke-width="1.75" stroke-linecap="round" stroke-linejoin="round"/>
<path d="M5.88227 6.22727H24L22.2436 14.9986C22.148 15.48 21.8862 15.9123 21.5039 16.22C21.1217 16.5278 20.6434 16.6912 20.1527 16.6818H9.10227C8.59176 16.6861 8.0973 16.5036 7.71214 16.1685C7.32697 15.8334 7.07771 15.3689 7.01136 14.8627L5.42227 2.81909C5.35637 2.31647 5.11013 1.85491 4.72935 1.52029C4.34857 1.18567 3.85919 1.00077 3.35227 1H1" stroke="#FF0018" stroke-width="2" stroke-linecap="round" stroke-linejoin="round"/>
</svg>
