<svg width="195" height="36" viewBox="0 0 195 36" fill="none" xmlns="http://www.w3.org/2000/svg">
<path d="M186.076 36H8.18804C3.63272 36 0 32.2779 0 27.7415V8.25848C0 3.66397 3.63272 0 8.18804 0H186.134C190.631 0 194.322 3.66397 194.322 8.25848V27.7415C194.264 32.2779 190.631 36 186.076 36Z" fill="#F00A0A"/>
<path d="M128.817 23.147C128.183 23.147 127.606 23.3796 127.145 23.8449C126.684 24.3101 126.453 24.8917 126.453 25.5315C126.453 26.1712 126.684 26.7528 127.145 27.2181C127.606 27.6833 128.183 27.916 128.817 27.916C129.452 27.916 130.028 27.6833 130.489 27.2181C130.951 26.7528 131.181 26.1712 131.181 25.5315C131.181 24.8917 130.951 24.3101 130.489 23.8449C130.028 23.3796 129.452 23.147 128.817 23.147Z" fill="white"/>
<path d="M140.234 16.808C140.926 16.808 141.503 16.9243 141.964 17.0988C142.425 17.2733 142.944 17.6804 143.463 18.2038L143.636 18.3783L147.038 16.5172L146.865 16.2264C146.174 15.1796 145.193 14.3653 144.098 13.7838C142.944 13.2022 141.676 12.9114 140.292 12.9114C138.793 12.9114 137.351 13.2603 136.14 13.9001C134.929 14.598 133.949 15.5285 133.257 16.6917C132.565 17.8548 132.219 19.1925 132.219 20.5883C132.219 22.6238 132.911 24.3686 134.353 25.8807C135.794 27.3928 137.755 28.1489 140.292 28.1489C143.06 28.1489 145.251 27.102 146.808 25.1246L147.038 24.8338L143.809 22.6238L143.636 22.8565C142.829 23.8451 141.734 24.3104 140.292 24.3104C139.139 24.3104 138.216 23.9615 137.466 23.2636C136.775 22.5657 136.429 21.6933 136.429 20.5883C136.429 19.4833 136.775 18.5527 137.524 17.8548C138.043 17.2151 139.023 16.808 140.234 16.808Z" fill="white"/>
<path d="M158.917 13.9582C157.706 13.2603 156.438 12.9114 155.111 12.9114C153.266 12.9114 151.594 13.5511 150.152 14.8888C148.538 16.4009 147.673 18.3201 147.673 20.5301C147.673 22.6238 148.422 24.4267 149.864 25.9388C151.306 27.3928 153.093 28.1489 155.111 28.1489C156.495 28.1489 157.764 27.7999 158.975 27.1602C160.128 26.5204 161.05 25.5317 161.742 24.3686C162.434 23.2054 162.723 21.9259 162.723 20.5301C162.723 19.1925 162.377 17.913 161.742 16.7498C161.05 15.5867 160.128 14.6561 158.917 13.9582ZM155.169 24.3104C154.189 24.3104 153.381 23.9615 152.747 23.2636C152.113 22.5657 151.767 21.6933 151.767 20.5301C151.767 19.4251 152.113 18.5527 152.747 17.8548C153.381 17.1569 154.189 16.808 155.169 16.808C156.207 16.808 157.014 17.1569 157.648 17.7967C158.283 18.4946 158.629 19.367 158.629 20.472C158.629 21.577 158.283 22.4493 157.648 23.1472C156.956 23.9615 156.149 24.3104 155.169 24.3104Z" fill="white"/>
<path d="M184.288 13.6674C183.481 13.2022 182.558 12.9114 181.52 12.9114C180.54 12.9114 179.618 13.144 178.753 13.6093C178.061 13.9582 177.426 14.4817 176.907 15.1796C176.504 14.5398 175.985 14.0164 175.351 13.6093C174.601 13.144 173.794 12.9114 172.871 12.9114C172.006 12.9114 171.141 13.0859 170.392 13.4348C169.873 13.6674 169.354 14.0164 168.892 14.4235V13.2603H164.798V27.7417H168.892V21.3443C168.892 20.0649 169.008 19.1343 169.238 18.5527C169.469 17.9711 169.757 17.564 170.161 17.2733C170.565 16.9825 171.026 16.808 171.545 16.808C172.006 16.808 172.352 16.9243 172.698 17.1569C172.986 17.3896 173.217 17.7385 173.39 18.2619C173.563 18.7854 173.621 19.6577 173.621 20.8791V27.9162H177.715V21.228C177.715 19.9485 177.83 19.018 178.061 18.4364C178.291 17.913 178.58 17.5059 178.983 17.1569C179.387 16.8661 179.848 16.6917 180.367 16.6917C181.059 16.6917 181.52 16.9243 181.866 17.3896C182.212 17.913 182.385 18.9017 182.385 20.4138V27.7999H186.479V19.3669C186.479 17.6222 186.306 16.4009 185.96 15.6448C185.672 14.8306 185.095 14.1909 184.288 13.6674Z" fill="white"/>
<path d="M11.8782 27.8582H16.0299V7.96802H10.1484L7.72656 11.9228H11.8782V27.8582Z" fill="white"/>
<path d="M28.7151 28.3231C31.5406 28.3231 33.9624 27.3344 35.9229 25.2989C37.8834 23.3215 38.8637 20.8207 38.8637 17.9709C38.8637 15.063 37.8257 12.5622 35.8652 10.5267C33.847 8.49113 31.4829 7.50244 28.6574 7.50244C26.8122 7.50244 25.0824 7.96771 23.5255 8.89824C21.9686 9.82877 20.7 11.1083 19.7774 12.6785C18.8549 14.2488 18.3936 16.0517 18.3936 17.9128C18.3936 20.7044 19.3738 23.2052 21.3343 25.2407C23.2948 27.2763 25.7743 28.3231 28.7151 28.3231ZM28.6574 11.6317C30.3296 11.6317 31.7712 12.2714 32.9244 13.4927C34.0777 14.7141 34.712 16.2262 34.712 17.9709C34.712 19.7157 34.1354 21.2278 32.9821 22.4491C31.8289 23.6705 30.3873 24.252 28.7151 24.252C27.2735 24.252 25.9473 23.7868 24.7941 22.8562C23.3525 21.6931 22.6029 20.0065 22.6029 17.9709C22.6029 16.1099 23.1795 14.5978 24.3328 13.3764C25.5437 12.2133 26.9852 11.6317 28.6574 11.6317Z" fill="white"/>
<path d="M50.6272 28.3231C53.4527 28.3231 55.8745 27.3344 57.835 25.2989C59.7955 23.3215 60.7758 20.8207 60.7758 17.9709C60.7758 15.063 59.7378 12.5622 57.7773 10.5267C55.7591 8.49113 53.395 7.50244 50.5695 7.50244C48.7244 7.50244 46.9945 7.96771 45.4376 8.89824C43.8807 9.82877 42.6122 11.1083 41.6896 12.6785C40.767 14.2488 40.3057 16.0517 40.3057 17.9128C40.3057 20.7044 41.2859 23.2052 43.2464 25.2407C45.207 27.2763 47.6864 28.3231 50.6272 28.3231ZM50.5695 11.6317C52.2418 11.6317 53.6833 12.2714 54.8366 13.4927C55.9898 14.7141 56.6241 16.2262 56.6241 17.9709C56.6241 19.7157 56.0475 21.2278 54.8942 22.4491C53.741 23.6705 52.2994 24.252 50.6272 24.252C49.1857 24.252 47.8594 23.7868 46.7062 22.8562C45.2646 21.6931 44.515 20.0065 44.515 17.9709C44.515 16.1099 45.0916 14.5978 46.2449 13.3764C47.3981 12.2133 48.8397 11.6317 50.5695 11.6317Z" fill="white"/>
<path d="M70.8665 17.157C71.1548 17.3897 71.3855 17.7386 71.5008 18.262C71.6161 18.7855 71.7315 19.8905 71.7315 21.4607V27.8582H75.7678V18.3202C75.7678 16.6336 75.3065 15.3541 74.4992 14.4817C73.519 13.4931 72.2504 12.9696 70.8089 12.9696C70.0593 12.9696 69.3096 13.1441 68.6177 13.4349C68.0987 13.6675 67.5798 13.9583 67.0608 14.3654V7.96802H62.9668V27.8H67.0608V21.926C67.0608 20.1231 67.1185 19.4252 67.1761 19.1344C67.3491 18.3784 67.6951 17.7968 68.0987 17.3897C68.56 16.9826 69.079 16.7499 69.6556 16.7499C70.1746 16.8081 70.5206 16.9244 70.8665 17.157Z" fill="white"/>
<path d="M92.5482 27.7999V13.3185H88.4542V14.4235C87.9929 14.0164 87.4739 13.6674 86.8973 13.4348C86.1477 13.0859 85.3404 12.9114 84.4755 12.9114C82.5726 12.9114 80.9581 13.6093 79.6895 15.0632C78.3633 16.459 77.729 18.3201 77.729 20.5301C77.729 22.682 78.421 24.4849 79.7472 25.9388C81.0734 27.3928 82.7456 28.1489 84.5908 28.1489C85.3981 28.1489 86.2054 27.9744 86.8973 27.6836C87.4163 27.451 87.9352 27.1602 88.4542 26.6949V27.7417H92.5482V27.7999ZM88.5695 20.5301C88.5695 21.6933 88.2235 22.5657 87.5892 23.2636C86.955 23.9615 86.1477 24.3104 85.1098 24.3104C84.1295 24.3104 83.3799 23.9615 82.688 23.2636C81.996 22.5657 81.7077 21.6351 81.7077 20.5301C81.7077 19.4251 81.996 18.5527 82.688 17.8548C83.3222 17.1569 84.1295 16.808 85.1098 16.808C86.09 16.808 86.8973 17.1569 87.5892 17.8548C88.2812 18.5527 88.5695 19.4251 88.5695 20.5301Z" fill="white"/>
<path d="M100.793 12.9695C100.101 12.9695 99.4667 13.144 98.8901 13.5511C98.6018 13.7255 98.3711 13.9582 98.1405 14.249V13.3184H94.5654V27.7999H98.6595V21.8677V21.228C98.6595 19.3669 98.8324 18.0874 99.1784 17.5058C99.4667 16.9242 99.8127 16.6916 100.216 16.6916C100.332 16.6916 100.62 16.7498 101.081 16.9824L101.427 17.1569L102.696 13.5511L102.408 13.4347C101.831 13.0858 101.312 12.9695 100.793 12.9695Z" fill="white"/>
<path d="M105.291 32.4524H109.616L118.323 13.3184H114.056L110.365 21.5187L107.021 13.3184H102.812L108.116 26.4621L105.291 32.4524Z" fill="white"/>
<path d="M124.262 8.20044H120.168V13.3184H118.323V16.9823H120.168V27.7998H124.262V16.9823H126.454V13.3184H124.262V8.20044Z" fill="white"/>
</svg>
